# xmcd
#
# Track frame offsets: 
#        150
#        25357
#        43840
#        60363
#
# Disc length: 1138 seconds
#
# Revision: 0
# Processed by: cddbd v1.5.2PL0 Copyright (c) Steve Scherf et al.
# Submitted via: ExactAudioCopy v1.0b1
#
DISCID=2d047004
DTITLE=U2 - U2360° At The Rose Bowl - Promotional Radio Sampler
DYEAR=2010
DGENRE=Rock
TTITLE0=Magnificent
TTITLE1=I Still Haven't Found What I'm Looking For
TTITLE2=Elevation
TTITLE3=I'll Go Crazy If I Don't Go Crazy Tonight
EXTD=
EXTT0=
EXTT1=
EXTT2=
EXTT3=
PLAYORDER=
